HIERARCHY
ROOT Hips
{
  OFFSET 0 0 0
  CHANNELS 6 Xposition Yposition Zposition Zrotation Yrotation Xrotation
  JOINT LeftThigh
  {
    OFFSET 8.409438 0 -5.917753
    CHANNELS 3 Zrotation Yrotation Xrotation
    JOINT LeftLeg
    {
      OFFSET 0 0 -42.358652
      CHANNELS 3 Zrotation Yrotation Xrotation
      JOINT LeftFoot
      {
        OFFSET 0 0 -39.357303
        CHANNELS 3 Zrotation Yrotation Xrotation
      }
    }
  }
  JOINT RightThigh
  {
    OFFSET -8.409438 0 -5.917753
    CHANNELS 3 Zrotation Yrotation Xrotation
    JOINT RightLeg
    {
      OFFSET 0 0 -42.358652
      CHANNELS 3 Zrotation Yrotation Xrotation
      JOINT RightFoot
      {
        OFFSET 0 0 -39.357303
        CHANNELS 3 Zrotation Yrotation Xrotation
      }
    }
  }
  JOINT SpineLow
  {
    OFFSET 0 0 4.719101
    CHANNELS 3 Zrotation Yrotation Xrotation
    JOINT SpineMid
    {
      OFFSET 0 0 12.899191
      CHANNELS 3 Zrotation Yrotation Xrotation
      JOINT Chest
      {
        OFFSET 0 0 12.899191
        CHANNELS 3 Zrotation Yrotation Xrotation
        JOINT LeftShoulder
        {
          OFFSET 7.550562 1.41573 9.438202
          CHANNELS 3 Zrotation Yrotation Xrotation
          JOINT LeftArm
          {
            OFFSET 9.155056 0 4.247191
            CHANNELS 3 Zrotation Yrotation Xrotation
            JOINT LeftForearm
            {
              OFFSET 0 0 25.771955
              CHANNELS 3 Zrotation Yrotation Xrotation
              JOINT LeftHand
              {
                OFFSET 0 0 25.197169
                CHANNELS 3 Zrotation Yrotation Xrotation
              }
            }
          }
        }
        JOINT RightShoulder
        {
          OFFSET -7.550562 1.41573 9.438202
          CHANNELS 3 Zrotation Yrotation Xrotation
          JOINT RightArm
          {
            OFFSET -9.155056 0 4.247191
            CHANNELS 3 Zrotation Yrotation Xrotation
            JOINT RightForearm
            {
              OFFSET 0 0 -25.771955
              CHANNELS 3 Zrotation Yrotation Xrotation
              JOINT RightHand
              {
                OFFSET 0 0 -25.197169
                CHANNELS 3 Zrotation Yrotation Xrotation
              }
            }
          }
        }
        JOINT Neck
        {
          OFFSET 0 0 15.101124
          CHANNELS 3 Zrotation Yrotation Xrotation
          JOINT Head
          {
            OFFSET 0 0 11.325843
            CHANNELS 3 Zrotation Yrotation Xrotation
            End Site
            {
              OFFSET 0 0 14.157303
            }
          }
        }
      }
    }
  }
}
MOTION
Frames: 8
Frame Time: 0.0
0.0  101.685394  0.0  64.213347  -58.684521  -151.185305  51.613878  -27.095338  -41.383198  2.734988  13.36607  91.675965  -12.399812  -0.467873  -1.386742  3.627852  15.757382  -18.508431  17.28538  -0.172427  33.823818  13.168258  10.063481  4.310752  1.322433  1.051265  4.285526  3.789517  2.628253  11.773326  3.789517  2.628253  11.773326  2.984044  19.799107  10.733135  163.348093  32.849993  175.622856  -38.818186  5.77603  85.903129  61.751495  -32.481606  20.867771  20.408786  -2.899145  20.638876  112.55763  54.940029  33.714147  -24.831866  -12.771506  -106.127974  71.966432  38.105912  11.246917  12.053795  11.874415  3.450107  8.940129  8.977934  2.342041  
0.0  101.685394  0.0  60.984669  -58.106546  -148.24671  49.682038  -26.256214  -41.083361  5.218078  18.288426  93.962891  -8.815401  0.133055  -1.458383  1.905477  15.46956  -18.366803  17.113251  -0.212414  33.548909  12.917044  10.218585  4.409445  1.269438  0.955001  4.216771  3.625442  2.37952  11.57728  3.625442  2.37952  11.57728  2.916937  19.842558  10.632832  162.48643  32.514175  176.426267  -38.846116  4.106766  86.067487  61.712785  -32.428762  20.920626  20.482467  -2.991041  20.761411  111.739432  54.154857  34.500039  -24.940943  -12.350699  -106.706808  71.863124  37.906313  11.107069  12.054122  11.677707  3.569815  8.940321  8.83272  2.435884  
0.0  101.685394  0.0  57.897024  -57.445291  -145.483809  48.053475  -24.996864  -40.446812  7.54175  22.586237  95.854924  -5.544175  0.594071  -1.471543  0.290918  15.255708  -18.106798  16.75904  -0.358497  33.448846  12.667756  10.530404  4.327953  1.242856  0.871987  4.156501  3.536472  2.161466  11.406548  3.536472  2.161466  11.406549  2.737998  19.838715  10.480751  161.423349  32.375679  177.28238  -38.969199  2.797926  86.133226  61.384452  -32.222922  21.10474  20.453936  -3.195522  20.876075  110.768027  53.304911  35.325122  -24.988704  -11.945888  -107.284556  71.798025  37.770606  11.040256  12.018849  11.406239  3.730412  8.914064  8.631987  2.562637  
0.0  101.685394  0.0  55.240264  -56.841789  -143.193443  47.123494  -23.181919  -39.312345  9.041305  25.545459  97.079689  -3.16675  0.953122  -1.476412  -0.872491  15.099658  -17.662288  16.130911  -0.316045  33.074753  12.434702  10.665598  4.314657  1.241911  0.787723  4.100136  3.51768  1.935246  11.247376  3.51768  1.935246  11.247376  2.605933  19.863398  10.409612  160.337988  32.216162  178.125937  -39.263104  1.993807  86.123559  60.969647  -31.866529  21.387458  20.460117  -3.35944  21.028782  109.543851  52.322351  36.078518  -24.992062  -11.548912  -107.845405  71.742696  37.674938  11.008902  11.918278  11.087673  3.885407  8.839741  8.395332  2.687404  
0.0  101.685394  0.0  52.712393  -56.348288  -140.907018  46.870812  -20.954924  -38.089465  9.742534  26.815321  97.997397  -2.027181  1.140949  -1.656017  -1.693627  14.815657  -17.218951  15.217858  -0.178239  32.609412  12.215318  10.784251  4.335224  1.237522  0.692417  4.011276  3.4873  1.68123  10.998776  3.4873  1.681231  10.998777  2.684588  19.964562  10.406994  159.014418  32.201893  179.020314  -39.762737  1.396976  85.906868  60.55983  -31.418449  21.6718  20.601455  -3.483742  21.206844  108.071727  51.198811  36.734002  -23.535435  -11.600031  -108.089123  73.409024  38.456011  12.334508  11.983176  10.78466  4.155834  8.887032  8.173772  2.895176  
0.0  101.685394  0.0  50.006156  -55.804774  -138.472977  46.881489  -18.476449  -36.777873  9.60367  26.346932  98.734065  -2.287584  1.261769  -2.028055  -2.353498  14.471569  -16.704834  14.209039  -0.063075  32.152267  11.874493  10.878538  4.355107  1.192225  0.571454  3.902903  3.341588  1.364858  10.694813  3.341588  1.364858  10.694814  2.898465  20.149545  10.522973  157.787326  32.094905  179.898148  -40.271463  0.751452  85.708343  60.135647  -30.995257  21.914604  20.838424  -3.50138  21.42094  106.392909  49.896367  37.2913  -23.586673  -11.099602  -108.500718  73.326637  38.338695  12.46185  12.057818  10.50086  4.405645  8.941977  7.966352  3.08704  
0.0  101.685394  0.0  46.617304  -54.996081  -135.515777  46.757215  -15.801927  -35.230163  8.531791  24.494064  99.115123  -3.69102  1.350109  -2.543786  -3.113485  13.87041  -16.110932  13.043142  0.136526  31.760799  11.305229  10.917012  4.35393  1.089783  0.4223  3.800499  3.036825  0.979827  10.405606  3.036825  0.979827  10.405606  2.930752  20.143321  10.621441  155.785071  32.831989  -178.707719  -41.548455  -0.018032  84.173744  59.74112  -30.682758  22.083384  20.932729  -3.488526  21.624948  104.675391  48.55514  37.830439  -22.046484  -11.074753  -108.668334  75.091518  39.114686  14.160369  12.273231  10.228459  4.730539  9.101052  7.77022  3.332603  
0.0  101.685394  0.0  43.456025  -54.095609  -132.853271  46.922069  -13.149965  -33.282026  6.886915  22.069863  99.213494  -5.506319  1.422077  -3.101256  -3.595974  13.299225  -15.365277  11.807042  0.327354  31.30961  10.610825  10.984439  4.36101  0.978799  0.278288  3.689066  2.710751  0.609452  10.093328  2.710751  0.609452  10.093329  3.144926  20.243518  10.80701  154.5794  32.725454  -177.794381  -41.966045  -1.211263  83.817097  59.408466  -30.495926  22.196501  20.957211  -3.365745  21.968272  102.978221  47.155732  38.30176  -22.191875  -10.549525  -108.94099  74.848082  39.181778  14.399498  12.384348  9.932996  4.945974  9.184478  7.553852  3.498705  
